HIERARCHY
ROOT ROOT
{
	OFFSET 0.000000 56.020000 -5.659234
	CHANNELS 6 Xposition Yposition Zposition Xrotation Yrotation Zrotation 
	JOINT C_spine0001_bind_JNT
	{
		OFFSET 0.000000 1.618999 0.000000
		CHANNELS 3 Xrotation Yrotation Zrotation
		JOINT C_spine0002_bind_JNT
		{
			OFFSET 0.000000 4.942001 0.000001
			CHANNELS 3 Xrotation Yrotation Zrotation
			JOINT C_spine0003_bind_JNT
			{
				OFFSET 0.000000 4.942001 -0.000000
				CHANNELS 3 Xrotation Yrotation Zrotation
				JOINT C_neck0001_bind_JNT
				{
					OFFSET 0.000000 17.026009 -0.000000
					CHANNELS 3 Xrotation Yrotation Zrotation
					JOINT C_neck0002_bind_JNT
					{
						OFFSET 0.000000 3.249985 0.000000
						CHANNELS 3 Xrotation Yrotation Zrotation
						JOINT C_head_bind_JNT
						{
							OFFSET 0.000000 5.278008 0.000000
							CHANNELS 3 Xrotation Yrotation Zrotation
							End Site
							{
								OFFSET 0.000000 0.000000 0.000000
							}
						}
					}
				}
				JOINT L_clavicle_bind_JNT
				{
					OFFSET 4.590000 12.067001 0.834000
					CHANNELS 3 Xrotation Yrotation Zrotation
					JOINT L_armUpper0001_bind_JNT
					{
						OFFSET 7.812635 0.512001 -3.452945
						CHANNELS 3 Xrotation Yrotation Zrotation
						JOINT L_armLower0001_bind_JNT
						{
							OFFSET 15.265892 -6.552116 -0.058157
							CHANNELS 3 Xrotation Yrotation Zrotation
							JOINT L_hand0001_bind_JNT
							{
								OFFSET 14.747667 -6.369995 5.049225
								CHANNELS 3 Xrotation Yrotation Zrotation
								End Site
								{
									OFFSET 0.000000 0.000000 0.000000
								}
							}
						}
					}
				}
				JOINT R_clavicle_bind_JNT
				{
					OFFSET -4.590000 12.067001 0.834000
					CHANNELS 3 Xrotation Yrotation Zrotation
					JOINT R_armUpper0001_bind_JNT
					{
						OFFSET -7.812635 0.512001 -3.452945
						CHANNELS 3 Xrotation Yrotation Zrotation
						JOINT R_armLower0001_bind_JNT
						{
							OFFSET -15.265890 -6.552124 -0.058160
							CHANNELS 3 Xrotation Yrotation Zrotation
							JOINT R_hand0001_bind_JNT
							{
								OFFSET -14.746784 -6.369629 5.048937
								CHANNELS 3 Xrotation Yrotation Zrotation
								End Site
								{
									OFFSET 0.000000 0.000000 0.000000
								}
							}
						}
					}
				}
			}
		}
	}
	JOINT C_pelvis0001_bind_JNT
	{
		OFFSET -0.000000 0.000000 0.000000
		CHANNELS 3 Xrotation Yrotation Zrotation
		JOINT L_legUpper0001_bind_JNT
		{
			OFFSET 6.599999 -6.027000 0.539000
			CHANNELS 3 Xrotation Yrotation Zrotation
			JOINT L_legLower0001_bind_JNT
			{
				OFFSET -0.140713 -19.187443 0.040261
				CHANNELS 3 Xrotation Yrotation Zrotation
				JOINT L_foot0001_bind_JNT
				{
					OFFSET -0.132215 -18.028637 -1.138370
					CHANNELS 3 Xrotation Yrotation Zrotation
					JOINT L_foot0002_bind_JNT
					{
						OFFSET 0.007014 -4.693133 9.886524
						CHANNELS 3 Xrotation Yrotation Zrotation
						End Site
						{
							OFFSET 0.000000 0.000000 0.000000
						}
					}
				}
			}
		}
		JOINT R_legUpper0001_bind_JNT
		{
			OFFSET -6.599999 -6.027000 0.539000
			CHANNELS 3 Xrotation Yrotation Zrotation
			JOINT R_legLower0001_bind_JNT
			{
				OFFSET 0.140710 -19.187164 0.040550
				CHANNELS 3 Xrotation Yrotation Zrotation
				JOINT R_foot0001_bind_JNT
				{
					OFFSET 0.132215 -18.028633 -1.138362
					CHANNELS 3 Xrotation Yrotation Zrotation
					JOINT R_foot0002_bind_JNT
					{
						OFFSET -0.007014 -4.693128 9.886505
						CHANNELS 3 Xrotation Yrotation Zrotation
						End Site
						{
							OFFSET 0.000000 0.000000 0.000000
						}
					}
				}
			}
		}
	}
}
MOTION
Frames: 8
Frame Time: 0.033333
6.944344 48.643055 70.066063 0.045624 -22.895494 -0.039762 -2.121067 29.531517 19.969925 -2.068831 1.354115 3.951788 9.975554 2.439723 3.830109 26.915133 -4.375944 1.673897 0.118178 -0.444326 0.393189 12.198649 -7.520607 4.957330 0.035270 -0.139642 12.160401 -26.565199 -12.530071 -42.028111 -1.997850 -23.581036 -16.000174 -4.089962 -11.323119 -36.010818 3.868131 -5.840370 -6.679969 -35.235935 11.437862 41.221973 0.350790 -9.907487 3.099422 -4.895155 16.266329 19.150623 -8.017610 25.569164 14.675594 -23.697908 2.412255 -5.375984 62.313808 -0.350295 -3.145051 5.032348 -5.694023 -16.846508 -6.351395 -0.978561 5.507682 0.971510 -6.979666 -3.444280 32.393387 3.691206 1.344080 -10.866500 -12.493660 -3.056749 -17.549814 1.271205 -6.824148 
6.134401 48.786297 71.137123 0.035788 -23.582022 -0.045093 0.052274 30.238243 18.643988 -1.610529 2.202801 3.904068 10.044073 3.363295 3.299947 26.525345 -4.502212 2.553333 -0.072652 -0.489598 0.347127 11.495423 -7.575498 5.634873 0.777178 0.948692 12.891504 -22.134632 -9.312429 -43.508659 -1.302171 -21.836451 -14.295707 -4.674544 -11.059294 -36.774712 4.014383 -4.784577 -7.338619 -36.102516 12.864808 42.693405 2.548483 -13.651696 3.199002 -5.257809 14.983201 22.009878 -5.996329 24.410765 14.016590 -25.381121 2.175434 -7.720450 58.400551 -0.404420 -2.924533 3.561872 -7.099632 -18.933712 -4.757116 -1.659167 5.211296 1.051028 -6.427859 -2.873167 30.417294 3.436632 1.334082 -8.411378 -10.772923 -2.835749 -19.373091 1.735169 -7.948438 
5.197028 48.765438 72.061806 0.053472 -23.820282 -0.048463 2.752817 30.278135 17.045135 -1.147691 3.256228 3.650189 10.379835 4.271826 3.259372 25.722771 -4.955146 2.782017 -0.281641 -0.451263 0.359151 10.084266 -8.442456 6.334556 1.344949 1.638195 13.114761 -19.365633 -5.786160 -45.251949 -0.293449 -20.476990 -13.441083 -5.117657 -10.234321 -38.014824 4.076660 -4.257456 -8.010307 -37.023361 13.939425 44.589321 4.037710 -15.964786 3.493445 -4.700362 13.774950 23.952383 -3.356751 22.522682 13.016288 -27.814222 3.005683 -9.435818 52.872028 -1.059709 -2.645710 2.104525 -6.928940 -21.115606 -0.390944 -2.719546 4.851538 0.601663 -5.915452 -2.590999 29.378551 3.470921 1.373700 -7.353124 -9.499277 -2.141165 -20.790075 2.664376 -9.295944 
4.127541 48.815212 73.135948 0.059348 -24.553997 -0.049125 5.673943 30.403427 15.058246 -0.490277 4.033197 3.264506 10.702766 5.045849 2.999350 25.114916 -5.112154 3.287837 -0.063662 -0.436809 0.112441 8.072076 -8.856581 6.649350 2.268830 2.071627 12.910680 -15.477057 -1.481338 -45.913265 -0.468527 -20.632362 -12.400849 -4.432485 -9.866536 -39.333187 3.717333 -3.956245 -9.307790 -38.433090 14.890517 47.205742 6.334281 -17.707306 4.073871 -4.835359 13.663718 26.655661 -0.636590 20.570919 11.566714 -29.370340 3.507975 -10.747211 46.350212 -1.319554 -2.772547 -0.380772 -5.729617 -23.059166 3.084694 -3.318216 3.737906 0.485913 -4.839461 -0.473788 27.562244 3.490142 0.716927 -7.058423 -8.543824 -2.568614 -21.134212 3.159706 -10.320834 
2.910963 48.548161 74.263107 0.040565 -25.650675 -0.057871 9.263542 30.841755 12.477431 -0.469380 4.807455 2.786803 10.859831 5.255611 2.514403 24.351320 -4.837200 3.563282 0.153739 -0.610923 0.161487 7.075062 -9.698150 7.439880 2.617459 2.194976 13.200143 -11.587068 1.608634 -47.331104 1.461535 -18.055279 -12.027538 -3.460335 -10.330010 -39.413837 3.699091 -4.181190 -9.304783 -39.666553 16.822964 50.412052 6.810735 -18.707380 3.832053 -4.545273 13.887926 28.833593 1.242535 19.142117 9.868186 -30.695637 4.048443 -11.439594 38.725857 -1.751889 -2.700346 -2.056243 -3.916357 -23.506908 4.832366 -3.780301 1.912523 1.189535 -4.649343 0.804682 26.555746 3.510993 0.252958 -7.197519 -7.222050 -1.940278 -21.255426 4.009704 -10.782707 
1.620771 48.368004 75.886597 0.046627 -25.790508 -0.053597 11.994051 29.360641 9.921492 -0.065474 5.659071 2.278244 11.441018 5.459964 2.011107 23.692844 -4.689990 3.494097 -0.073503 -0.778706 0.319865 6.270041 -9.722152 7.536850 3.893476 1.866844 13.379515 -7.467301 5.704633 -49.431900 3.236433 -14.743078 -11.039735 -2.635990 -10.804659 -38.345272 3.920196 -4.517054 -10.436842 -41.351711 17.693823 55.083221 7.964579 -18.945896 3.867538 -5.937460 15.054364 29.966860 2.897261 16.496271 8.262227 -31.239710 4.280191 -11.793307 32.356346 -1.174592 -2.510113 -3.763355 -2.615318 -22.804108 3.668309 -4.023178 0.399381 2.363266 -4.100830 2.837568 24.992037 2.366224 -0.850209 -7.938308 -4.732742 -1.147273 -21.290257 3.846036 -11.439475 
0.301960 48.088291 77.419228 0.061097 -26.619137 -0.037708 15.170480 28.305189 6.295911 -0.319522 6.154891 1.699199 11.530433 5.548796 1.464090 22.650259 -4.559211 3.472656 0.419228 -0.653028 0.239721 5.639156 -9.221742 7.514091 4.911226 0.433560 13.152683 -3.366883 10.423478 -51.239170 5.068567 -10.425714 -9.179581 -1.533351 -11.132132 -38.096935 4.046812 -4.160545 -10.647690 -42.520992 18.542982 59.494003 8.426686 -18.322426 4.943182 -5.468822 15.122055 30.295870 4.257983 14.492821 7.142662 -33.111698 5.015282 -12.480931 27.887302 -1.222427 -2.012117 -2.700844 -2.440864 -19.002172 2.378313 -2.730779 -0.744459 3.854283 -3.551052 3.527373 23.727161 1.942815 -1.112113 -7.505994 -3.193088 0.522145 -22.978226 4.710968 -12.396970 
-1.094019 47.636932 79.196220 0.059359 -26.654829 -0.041397 17.070133 25.712746 3.109943 -0.188404 6.636153 1.180207 11.366219 5.436227 0.481823 23.065651 -4.221014 3.422408 -0.141637 -0.700214 0.357205 5.404637 -8.306128 7.514605 6.350618 -1.161600 13.330397 -0.220871 14.504363 -53.574509 6.546265 -4.760167 -7.173062 -0.035340 -11.905099 -37.356335 5.396075 -3.842405 -10.738804 -43.167488 19.100924 63.435001 8.779558 -15.779234 6.557002 -6.151686 15.883771 29.589638 5.260517 11.772546 5.237380 -35.093269 5.262294 -12.618922 27.050369 -1.563171 -1.081521 -0.625337 -2.977356 -12.529452 0.980947 -2.610716 -0.281020 5.769211 -3.509727 5.559190 23.131783 0.591812 -1.356154 -6.777321 -1.363718 2.744979 -25.418661 5.704342 -14.203827 
